<svg width="328" height="48" viewBox="0 0 328 48" fill="none" xmlns="http://www.w3.org/2000/svg">
<rect width="328" height="48" rx="8" fill="#F2F2F2"/>
<g clip-path="url(#clip0_7430_20304)">
<path d="M39.7663 24.2765C39.7663 23.4608 39.7001 22.6406 39.559 21.8381H28.2402V26.4591H34.722C34.453 27.9495 33.5888 29.2679 32.3233 30.1056V33.104H36.1903C38.4611 31.014 39.7663 27.9274 39.7663 24.2765Z" fill="#4285F4"/>
<path d="M28.2401 36.0008C31.4766 36.0008 34.2059 34.9382 36.1945 33.1039L32.3276 30.1055C31.2517 30.8375 29.8627 31.252 28.2445 31.252C25.1139 31.252 22.4595 29.1399 21.507 26.3003H17.5166V29.3912C19.5537 33.4434 23.7029 36.0008 28.2401 36.0008Z" fill="#34A853"/>
<path d="M21.5028 26.3002C21.0001 24.8099 21.0001 23.196 21.5028 21.7057V18.6147H17.5167C15.8147 22.0055 15.8147 26.0004 17.5167 29.3912L21.5028 26.3002Z" fill="#FBBC04"/>
<path d="M28.2401 16.7497C29.9509 16.7232 31.6044 17.367 32.8434 18.5487L36.2695 15.1226C34.1001 13.0855 31.2208 11.9655 28.2401 12.0008C23.7029 12.0008 19.5537 14.5582 17.5166 18.6148L21.5026 21.7058C22.4506 18.8617 25.1095 16.7497 28.2401 16.7497Z" fill="#EA4335"/>
</g>
<path d="M150.419 18.2031V19.4375C150.419 20.7656 150.419 22.2031 150.028 24.2031H152.044V25.4219H146.372V31.3438H144.872V25.4219H139.278V24.2031H148.528C148.95 22.2109 148.95 20.7422 148.95 19.4375V19.4219H140.841V18.2031H150.419ZM163.894 17.9219V18.8438C163.894 19.7734 163.894 20.9453 163.597 22.4688H165.519V23.6562H152.706V22.4688H162.112C162.394 21.0469 162.425 19.9766 162.425 19.1094H154.316V17.9219H163.894ZM163.909 24.9062V28.5781H155.706V30H164.269V31.1875H154.222V27.4375H162.441V26.0938H154.206V24.9062H163.909ZM178.947 28.4062V29.6562H166.134V28.4062H171.775V25.9531H167.697V21.5H175.916V19.5312H167.666V18.3125H177.384V22.6875H169.166V24.7344H177.712V25.9531H173.244V28.4062H178.947ZM195.881 28.4062V29.6562H183.069V28.4062H188.709V25.9531H184.631V21.5H192.85V19.5312H184.6V18.3125H194.319V22.6875H186.1V24.7344H194.647V25.9531H190.178V28.4062H195.881ZM207.591 18.75V20.25C207.591 22.0625 207.591 24.0312 207.075 27.0156L205.559 26.875C206.122 24.0781 206.122 22.0156 206.122 20.25V19.9688H197.872V18.75H207.591ZM209.262 28.1094V29.3438H196.497V28.1094H209.262ZM221.534 17.3438V27.5156H220.05V17.3438H221.534ZM221.956 29.8281V31.0312H212.378V26.4844H213.878V29.8281H221.956ZM213.941 18.2812C216.05 18.2812 217.659 19.7188 217.659 21.75C217.659 23.8125 216.05 25.2344 213.941 25.2344C211.831 25.2344 210.206 23.8125 210.206 21.75C210.206 19.7188 211.831 18.2812 213.941 18.2812ZM213.941 19.5781C212.628 19.5781 211.659 20.4688 211.659 21.75C211.659 23.0625 212.628 23.9375 213.941 23.9375C215.222 23.9375 216.206 23.0625 216.206 21.75C216.206 20.4688 215.222 19.5781 213.941 19.5781Z" fill="black"/>
<defs>
<clipPath id="clip0_7430_20304">
<rect width="24" height="24" fill="white" transform="translate(16 12)"/>
</clipPath>
</defs>
</svg>
