<svg width="100" height="20" viewBox="0 0 100 20" fill="none" xmlns="http://www.w3.org/2000/svg">
<g clip-path="url(#clip0_7615_2531)">
<path d="M43.8626 0.382446C46.4327 0.382446 48.661 1.31109 50.5545 3.16838C52.4479 5.02567 53.3912 7.3268 53.3912 10.0718C53.3912 12.8167 52.4889 15.1588 50.6843 17.0981C48.8798 19.0305 46.6583 20.0001 44.0198 20.0001C41.3813 20.0001 39.1393 19.0441 37.2869 17.139C35.4345 15.2339 34.5117 12.9601 34.5117 10.3244C34.5117 8.88364 34.7715 7.53847 35.291 6.28207C35.8104 5.02567 36.5077 3.97412 37.3758 3.12058C38.2439 2.27388 39.2418 1.60471 40.3697 1.1199C41.4975 0.635092 42.6595 0.389275 43.8557 0.389275L43.8626 0.382446ZM39.1188 10.1947C39.1188 11.7379 39.6178 12.9874 40.6158 13.9502C41.6137 14.913 42.7279 15.391 43.9583 15.391C45.1887 15.391 46.3028 14.9198 47.294 13.9844C48.2851 13.0489 48.7773 11.7925 48.7773 10.2152C48.7773 8.63782 48.2783 7.36777 47.2803 6.41864C46.2823 5.46268 45.1681 4.9847 43.9309 4.9847C42.6937 4.9847 41.5864 5.46268 40.5952 6.42546C39.6041 7.38825 39.112 8.63782 39.112 10.181L39.1188 10.1947Z" fill="url(#paint0_linear_7615_2531)"/>
<path d="M59.2703 0.594116L64.0893 0.621429C66.6047 0.621429 68.8194 1.52959 70.7265 3.33908C72.6336 5.14857 73.5906 7.38142 73.5906 10.024C73.5906 12.6665 72.6541 14.9335 70.7949 16.8249C68.9288 18.7163 66.6663 19.6586 64.0141 19.6586H59.2498C58.1903 19.6586 57.5341 19.4401 57.2676 19.01C57.0625 18.6481 56.9531 18.095 56.9531 17.3439V2.88159C56.9531 2.46506 56.9668 2.16462 56.9941 1.97343C57.0215 1.78224 57.1035 1.5569 57.2402 1.29743C57.4795 0.833106 58.163 0.594116 59.2703 0.594116ZM67.4728 13.6634C68.4777 12.7348 68.9835 11.5671 68.9835 10.1673C68.9835 8.76756 68.4913 7.58626 67.5139 6.64396C66.5296 5.70166 65.3812 5.22368 64.062 5.22368H61.5602V15.0564H64.0893C65.3402 15.0564 66.468 14.5921 67.4728 13.6634Z" fill="url(#paint1_linear_7615_2531)"/>
<path d="M75.8867 9.28643C75.8867 8.89039 75.9004 8.58995 75.9277 8.39193C75.9551 8.19391 76.0371 7.96175 76.1738 7.70227C76.4131 7.23795 77.0966 6.99896 78.2039 6.99896C79.4206 6.99896 80.1384 7.31989 80.3639 7.96175C80.4528 8.25536 80.4938 8.70603 80.4938 9.31375V17.3984C80.4938 17.8149 80.4801 18.1154 80.4528 18.3066C80.4254 18.4978 80.3434 18.7231 80.2067 18.9826C79.9675 19.4537 79.2839 19.6859 78.1766 19.6859C76.9599 19.6859 76.249 19.3581 76.0439 18.6958C75.9414 18.4158 75.8867 17.9788 75.8867 17.3711V9.28643Z" fill="url(#paint2_linear_7615_2531)"/>
<path d="M29.8431 18.9144L28.3325 18.6685C27.4986 18.532 26.9449 17.774 27.0816 16.9751L27.2115 16.2513C27.7652 13.1035 27.6558 8.88362 25.7146 6.47324C24.8054 5.34658 23.5546 4.73203 21.8935 4.59547C20.9434 4.52036 20.1095 4.77983 19.3986 5.18953C21.5244 8.69243 21.8935 13.2742 20.2189 16.0533C19.2141 17.7194 17.5394 18.6207 15.6255 18.5183C13.8141 18.4227 12.3034 17.4599 11.49 15.8758C10.0956 13.1581 10.7997 8.70609 13.1647 5.15539C12.2419 4.66375 11.1893 4.47256 10.0067 4.58864C8.63282 4.72521 7.55283 5.2783 6.72574 6.26839C4.40169 9.0475 4.44954 14.5033 4.66828 16.3674L4.7503 17.098C4.846 17.9038 4.23765 18.6276 3.40372 18.7163L1.87942 18.8802C1.0455 18.969 0.286769 18.3886 0.197909 17.5828L0.115884 16.8522C0.0748713 16.504 -0.820569 8.25542 3.16448 3.49612C4.77764 1.57737 6.92397 0.464366 9.54193 0.204892C12.0437 -0.0477543 14.3883 0.553133 16.3158 1.87782C18.1136 0.628244 20.1642 0.034185 22.2763 0.204892C25.2019 0.437053 27.6421 1.67297 29.3305 3.76925C32.9259 8.22128 32.0715 15.0086 31.7297 16.9888L31.5999 17.7126C31.4631 18.5115 30.6702 19.0509 29.8431 18.9144ZM16.2065 9.03384C15.2905 11.0823 15.1812 13.0967 15.605 13.9229C15.7007 14.1141 15.7348 14.1141 15.8852 14.1209C16.0151 14.1209 16.0971 14.1346 16.268 13.8478C16.7875 12.9806 16.89 11.0072 16.2133 9.03384H16.2065Z" fill="url(#paint3_linear_7615_2531)"/>
<path d="M78.1903 4.56128C79.4511 4.56128 80.4733 3.54021 80.4733 2.28064C80.4733 1.02108 79.4511 0 78.1903 0C76.9294 0 75.9072 1.02108 75.9072 2.28064C75.9072 3.54021 76.9294 4.56128 78.1903 4.56128Z" fill="url(#paint4_linear_7615_2531)"/>
<path d="M99.6122 16.463C99.8719 17.0844 100.002 17.535 100.002 17.815C100.002 18.4773 99.4618 19.0304 98.3886 19.4811C97.835 19.7201 97.3838 19.843 97.0489 19.843C96.714 19.843 96.4337 19.761 96.215 19.5972C95.9962 19.4333 95.839 19.2626 95.7365 19.0919C95.5656 18.7641 94.8889 17.1936 93.7064 14.3872L92.8998 14.4418H89.6188V17.378C89.6188 17.774 89.6051 18.0745 89.5778 18.2725C89.5504 18.4705 89.4684 18.7027 89.3317 18.9621C89.0925 19.4333 88.4089 19.6654 87.3016 19.6654C86.0849 19.6654 85.374 19.3445 85.1689 18.7027C85.0664 18.409 85.0117 17.9584 85.0117 17.3507V2.90887C85.0117 2.51283 85.0254 2.21239 85.0527 2.01437C85.0801 1.81635 85.1621 1.58418 85.2988 1.32471C85.538 0.860388 86.2216 0.621399 87.3289 0.621399H92.9545C94.4788 0.621399 95.9689 1.17449 97.4043 2.2875C98.1016 2.82693 98.6689 3.55073 99.12 4.47254C99.5712 5.39436 99.7967 6.4186 99.7967 7.54526C99.7967 9.50498 99.1474 11.1164 97.8418 12.3865C98.2246 13.3083 98.8124 14.6671 99.6122 16.4698V16.463ZM89.612 9.82591H92.9476C93.4535 9.82591 93.9525 9.63471 94.4583 9.25233C94.9641 8.86995 95.217 8.29637 95.217 7.53844C95.217 6.7805 94.9641 6.20009 94.4583 5.81088C93.9525 5.42167 93.433 5.22365 92.893 5.22365H89.612V9.82591Z" fill="url(#paint5_linear_7615_2531)"/>
</g>
<defs>
<linearGradient id="paint0_linear_7615_2531" x1="-0.500337" y1="-0.000120975" x2="101" y2="19.9999" gradientUnits="userSpaceOnUse">
<stop stop-color="#05FFF7"/>
<stop offset="1" stop-color="#4D17EF"/>
</linearGradient>
<linearGradient id="paint1_linear_7615_2531" x1="-0.999817" y1="0.000122536" x2="101" y2="20.0001" gradientUnits="userSpaceOnUse">
<stop stop-color="#05FFF7"/>
<stop offset="1" stop-color="#4D17EF"/>
</linearGradient>
<linearGradient id="paint2_linear_7615_2531" x1="-1.00016" y1="-6.29342e-05" x2="101" y2="19.9999" gradientUnits="userSpaceOnUse">
<stop stop-color="#05FFF7"/>
<stop offset="1" stop-color="#4D17EF"/>
</linearGradient>
<linearGradient id="paint3_linear_7615_2531" x1="-0.000487963" y1="-6.2053e-05" x2="99.9995" y2="19.9999" gradientUnits="userSpaceOnUse">
<stop stop-color="#05FFF7"/>
<stop offset="1" stop-color="#4D17EF"/>
</linearGradient>
<linearGradient id="paint4_linear_7615_2531" x1="-0.000184155" y1="-1.25024e-06" x2="101" y2="20" gradientUnits="userSpaceOnUse">
<stop stop-color="#05FFF7"/>
<stop offset="1" stop-color="#4D17EF"/>
</linearGradient>
<linearGradient id="paint5_linear_7615_2531" x1="-0.000336075" y1="6.19239e-05" x2="99.9997" y2="20.0001" gradientUnits="userSpaceOnUse">
<stop stop-color="#05FFF7"/>
<stop offset="1" stop-color="#4D17EF"/>
</linearGradient>
<clipPath id="clip0_7615_2531">
<rect width="100" height="20" fill="white"/>
</clipPath>
</defs>
</svg>
